<?xml version="1.0" standalone="no"?>
<!DOCTYPE svg PUBLIC "-//W3C//DTD SVG 20010904//EN"
 "http://www.w3.org/TR/2001/REC-SVG-20010904/DTD/svg10.dtd">
<svg version="1.0" xmlns="http://www.w3.org/2000/svg"
 width="512.000000pt" height="512.000000pt" viewBox="0 0 512.000000 512.000000"
 preserveAspectRatio="xMidYMid meet">

<g transform="translate(0.000000,512.000000) scale(0.100000,-0.100000)"
fill="#000000" stroke="none">
<path d="M443 4665 c-71 -22 -134 -65 -214 -145 -88 -90 -129 -162 -129 -229
1 -116 98 -211 215 -211 45 0 129 44 157 81 47 62 117 193 138 259 30 91 25
169 -15 210 -16 17 -45 35 -64 40 -42 12 -35 12 -88 -5z"/>
<path d="M3424 4301 c-48 -29 -63 -83 -73 -256 -4 -82 -7 -151 -6 -153 1 -1
44 20 96 47 108 56 137 66 255 90 l85 16 -94 120 c-52 66 -108 128 -125 138
-39 22 -99 22 -138 -2z"/>
<path d="M4144 4311 c-27 -12 -78 -67 -163 -177 l-70 -91 72 -12 c96 -16 223
-60 298 -105 34 -20 63 -35 65 -33 2 2 -1 74 -6 160 -10 161 -21 207 -59 241
-23 21 -104 31 -137 17z"/>
<path d="M3030 3871 c-58 -19 -118 -57 -175 -112 -73 -70 -159 -123 -225 -139
-27 -6 -51 -18 -54 -25 -3 -8 1 -36 9 -63 29 -97 137 -186 287 -236 106 -36
118 -35 118 10 0 139 118 366 258 497 l52 48 -28 11 c-33 14 -208 20 -242 9z"/>
<path d="M4448 3871 c-52 -17 -50 -21 36 -111 70 -74 93 -107 140 -202 41 -84
60 -136 72 -203 10 -49 18 -91 19 -92 4 -7 130 34 180 59 118 58 193 135 216
221 14 53 8 64 -43 76 -74 19 -143 60 -227 135 -110 100 -151 119 -271 122
-52 2 -107 0 -122 -5z"/>
<path d="M1335 3650 c-130 -11 -245 -44 -370 -105 -313 -152 -526 -427 -592
-765 -19 -102 -21 -349 -2 -361 26 -17 124 -51 203 -71 112 -29 248 -23 328
14 86 40 137 94 199 209 100 189 194 265 416 342 173 60 228 98 276 185 52 95
76 278 62 465 l-7 97 -211 -1 c-117 -1 -252 -5 -302 -9z"/>
<path d="M3466 3369 c-23 -18 -26 -27 -26 -83 0 -68 12 -89 60 -101 18 -4 34
0 53 15 24 19 27 28 27 83 0 68 -4 78 -37 96 -31 16 -47 14 -77 -10z"/>
<path d="M4136 3369 c-23 -18 -26 -27 -26 -83 0 -68 12 -89 60 -101 18 -4 34
0 53 15 24 19 27 28 27 83 0 68 -4 78 -37 96 -31 16 -47 14 -77 -10z"/>
<path d="M2860 3040 c-62 -11 -120 -36 -153 -68 -56 -53 -60 -72 -69 -287 -8
-219 -18 -272 -68 -362 -83 -147 -82 -144 -77 -208 6 -77 35 -135 101 -200 96
-93 227 -141 365 -133 159 10 281 115 331 285 l13 42 -89 94 c-163 173 -222
316 -181 437 13 36 9 117 -14 313 l-11 97 -52 -1 c-28 -1 -71 -5 -96 -9z"/>
<path d="M3554 2588 c-32 -15 -44 -51 -44 -134 0 -70 2 -78 29 -105 37 -37 65
-37 102 0 27 28 29 34 29 111 0 77 -2 83 -29 111 -31 30 -52 35 -87 17z"/>
<path d="M4056 2579 c-25 -20 -26 -24 -26 -119 0 -95 1 -99 27 -120 20 -16 36
-20 58 -16 52 10 65 37 65 138 0 81 -2 91 -25 113 -30 30 -64 32 -99 4z"/>
<path d="M1818 2490 c-21 -11 -62 -45 -92 -75 -30 -30 -60 -55 -68 -56 -7 -1
-65 -2 -128 -3 -104 -1 -120 -4 -172 -29 -146 -72 -212 -254 -145 -400 63
-139 217 -222 347 -187 35 9 57 25 100 72 136 151 163 173 275 230 61 31 122
69 137 85 84 88 80 241 -9 325 -62 59 -173 76 -245 38z"/>
<path d="M457 653 c7 -119 19 -160 56 -187 27 -20 41 -21 232 -21 192 0 205 1
232 21 24 19 28 28 27 70 0 41 -8 62 -50 129 l-50 80 -227 3 -226 2 6 -97z"/>
<path d="M1395 648 c13 -194 32 -208 280 -208 184 0 236 9 260 43 27 39 18 79
-39 173 l-53 89 -227 3 -228 2 7 -102z"/>
<path d="M2500 703 c1 -27 5 -81 9 -122 8 -63 13 -78 40 -105 l31 -31 184 -3
c203 -4 257 4 282 44 24 36 13 82 -46 179 l-51 85 -225 0 -224 0 0 -47z"/>
<path d="M3414 683 c14 -153 18 -173 37 -197 32 -41 77 -48 276 -44 166 3 184
5 210 24 22 17 29 30 31 65 2 38 -5 56 -51 129 l-53 85 -228 3 -228 2 6 -67z"/>
</g>
</svg>
